<?xml version="1.0" encoding="UTF-8"?>
<svg id="Ebene_1" data-name="Ebene 1" xmlns="http://www.w3.org/2000/svg" viewBox="0 0 1000 248.94">
  <defs>
    <style>
      .cls-1 {
        fill: #6034ed;
      }
    </style>
  </defs>
  <path class="cls-1" d="m92.34,170.93c-5-2.19-8.96-5.2-11.85-9.02-2.9-3.82-4.52-8.1-4.87-12.84h22.25c.26,2.55,1.45,4.61,3.56,6.19,2.11,1.58,4.69,2.37,7.77,2.37,2.81,0,4.98-.55,6.52-1.65,1.53-1.1,2.3-2.52,2.3-4.28,0-2.11-1.1-3.66-3.29-4.67-2.2-1.01-5.75-2.13-10.67-3.36-5.27-1.23-9.66-2.52-13.17-3.88-3.51-1.36-6.54-3.51-9.09-6.45-2.55-2.94-3.82-6.91-3.82-11.92,0-4.21,1.16-8.05,3.49-11.52,2.32-3.47,5.75-6.21,10.27-8.23,4.52-2.02,9.9-3.03,16.13-3.03,9.22,0,16.48,2.28,21.79,6.85,5.31,4.57,8.36,10.62,9.15,18.17h-20.81c-.35-2.55-1.47-4.56-3.36-6.06-1.89-1.49-4.37-2.24-7.44-2.24-2.63,0-4.65.51-6.06,1.51-1.4,1.01-2.11,2.39-2.11,4.15,0,2.11,1.12,3.69,3.36,4.74,2.24,1.05,5.73,2.11,10.47,3.16,5.44,1.41,9.88,2.79,13.3,4.15,3.42,1.36,6.43,3.56,9.02,6.58,2.59,3.03,3.93,7.09,4.02,12.18,0,4.3-1.21,8.14-3.62,11.52-2.41,3.38-5.88,6.04-10.4,7.97-4.52,1.93-9.77,2.9-15.73,2.9-6.41,0-12.11-1.1-17.12-3.29Zm59.96-54.52c3.12-5.71,7.46-10.09,13.04-13.17,5.57-3.07,11.96-4.61,19.16-4.61,9.22,0,16.92,2.42,23.11,7.24,6.19,4.83,10.25,11.63,12.18,20.41h-23.96c-2.02-5.62-5.93-8.43-11.72-8.43-4.13,0-7.42,1.6-9.88,4.81-2.46,3.21-3.69,7.79-3.69,13.76s1.23,10.56,3.69,13.76c2.46,3.21,5.75,4.81,9.88,4.81,5.79,0,9.7-2.81,11.72-8.43h23.96c-1.93,8.6-6.01,15.36-12.25,20.28-6.23,4.92-13.92,7.37-23.04,7.37-7.2,0-13.59-1.53-19.16-4.61-5.58-3.07-9.92-7.46-13.04-13.17-3.12-5.71-4.67-12.38-4.67-20.02s1.56-14.31,4.67-20.02Zm142.31-9.15c5.09,5.58,7.64,13.23,7.64,22.98v42.93h-22.39v-39.9c0-4.92-1.27-8.73-3.82-11.46-2.55-2.72-5.97-4.08-10.27-4.08s-7.73,1.36-10.27,4.08c-2.55,2.72-3.82,6.54-3.82,11.46v39.9h-22.52v-97.44h22.52v33.84c2.28-3.25,5.4-5.84,9.35-7.77,3.95-1.93,8.38-2.9,13.3-2.9,8.43,0,15.19,2.79,20.28,8.36Zm93.17-7.57v73.48h-22.52v-10.01c-2.28,3.25-5.38,5.86-9.28,7.83-3.91,1.98-8.23,2.96-12.97,2.96-5.62,0-10.58-1.25-14.88-3.75-4.3-2.5-7.64-6.12-10.01-10.86-2.37-4.74-3.56-10.31-3.56-16.72v-42.93h22.39v39.9c0,4.92,1.27,8.74,3.82,11.46,2.55,2.72,5.97,4.08,10.27,4.08s7.85-1.36,10.4-4.08c2.54-2.72,3.82-6.54,3.82-11.46v-39.9h22.52Zm36.41-23.97v97.44h-22.52v-97.44h22.52Zm246.98,31.54c5.14,5.58,7.7,13.23,7.7,22.98v42.93h-22.39v-39.9c0-4.92-1.27-8.73-3.82-11.46-2.55-2.72-5.97-4.08-10.27-4.08s-7.73,1.36-10.27,4.08c-2.55,2.72-3.82,6.54-3.82,11.46v39.9h-22.52v-73.48h22.52v9.74c2.28-3.25,5.35-5.81,9.22-7.7,3.86-1.89,8.21-2.83,13.04-2.83,8.6,0,15.47,2.79,20.61,8.36Zm86.47,0c5.14,5.58,7.7,13.23,7.7,22.98v42.93h-22.39v-39.9c0-4.92-1.27-8.73-3.82-11.46-2.55-2.72-5.97-4.08-10.27-4.08s-7.73,1.36-10.27,4.08c-2.55,2.72-3.82,6.54-3.82,11.46v39.9h-22.52v-73.48h22.52v9.74c2.28-3.25,5.35-5.81,9.22-7.7,3.86-1.89,8.21-2.83,13.04-2.83,8.6,0,15.47,2.79,20.61,8.36Zm90.53,34.57h-50.96c.35,4.57,1.82,8.06,4.41,10.47,2.59,2.42,5.77,3.62,9.55,3.62,5.62,0,9.52-2.37,11.72-7.11h23.97c-1.23,4.83-3.45,9.17-6.65,13.04-3.21,3.86-7.22,6.89-12.05,9.09-4.83,2.2-10.23,3.29-16.2,3.29-7.2,0-13.61-1.53-19.22-4.61-5.62-3.07-10.01-7.46-13.17-13.17-3.16-5.71-4.74-12.38-4.74-20.02s1.56-14.31,4.67-20.02c3.12-5.71,7.48-10.09,13.1-13.17,5.62-3.07,12.07-4.61,19.36-4.61s13.43,1.49,18.96,4.48c5.53,2.99,9.85,7.24,12.97,12.77,3.11,5.53,4.67,11.98,4.67,19.36,0,2.11-.13,4.3-.39,6.58Zm-22.65-12.51c0-3.86-1.32-6.93-3.95-9.22-2.63-2.28-5.93-3.42-9.88-3.42s-6.96,1.1-9.55,3.29c-2.59,2.2-4.19,5.31-4.81,9.35h28.18Zm73.9,43.85l-14.09-20.41-11.85,20.41h-24.36l24.23-37.53-24.89-35.95h25.28l14.09,20.28,11.85-20.28h24.36l-24.62,37,25.28,36.48h-25.28Zm-342.84-74.93c-9.9,0-19.55,3.14-25.99,9.56l-43.8,44.01c-2.97,2.96-7.21,4.54-11.67,4.54-9.74,0-17.63-8.22-17.63-18.36s7.9-18.36,17.63-18.36c5.35,0,10.15,2.48,13.38,6.4l15.38-15.85c-6.61-7.37-16.41-11.95-28.98-11.95-21.43,0-38.81,17.8-38.81,39.75s17.38,39.75,38.81,39.75c11.48,0,20.35-4.42,28.9-12.98,0,0,38.45-37.92,38.46-37.93,3.96-3.89,8.44-7.21,14.32-7.21,10.14,0,18.36,8.22,18.36,18.36s-8.22,18.36-18.36,18.36c-7.63,0-14.17-4.65-16.95-11.28l-15.48,15.94c7.21,10.13,19.05,16.74,32.42,16.74,21.95,0,39.75-17.8,39.75-39.75s-17.8-39.75-39.75-39.75Z"/>
</svg>